<svg xmlns="http://www.w3.org/2000/svg" viewBox="0 0 1050 600" width="1050" height="600"><defs><linearGradient id="bg" x1="0" y1="0" x2="1" y2="1"><stop offset="0" stop-color="#0B3F4B"/><stop offset="0.55" stop-color="#06242B"/><stop offset="1" stop-color="#06242B"/></linearGradient><linearGradient id="cfL" gradientUnits="userSpaceOnUse" x1="805.7" y1="204.3" x2="923.8" y2="86.2"><stop offset="0" stop-color="#D2F57F"/><stop offset="1" stop-color="#2BC08E"/></linearGradient><linearGradient id="cfR" gradientUnits="userSpaceOnUse" x1="936.2" y1="73.8" x2="1054.3" y2="-44.3"><stop offset="0" stop-color="#1A8FA0"/><stop offset="1" stop-color="#7FE3D2"/></linearGradient></defs><rect width="1050" height="600" fill="url(#bg)"/><g opacity="0.14"><path d="M805.74,80.00L804.98,80.77L804.23,81.54L803.49,82.33L802.76,83.12L802.04,83.93L801.33,84.74L800.63,85.56L799.95,86.39L799.27,87.23L798.60,88.07L797.94,88.93L797.29,89.79L796.65,90.66L796.03,91.54L795.41,92.42L794.81,93.32L794.21,94.22L793.63,95.12L793.06,96.04L792.50,96.96L791.95,97.89L791.42,98.82L790.89,99.76L790.38,100.71L789.87,101.67L789.38,102.63L788.90,103.59L788.44,104.56L787.98,105.54L787.54,106.52L787.11,107.51L786.69,108.51L786.28,109.51L785.89,110.51L785.51,111.52L785.14,112.53L784.78,113.55L784.43,114.57L784.10,115.60L783.78,116.63L783.48,117.66L783.18,118.70L782.90,119.74L782.63,120.78L782.38,121.83L782.14,122.88L781.91,123.93L781.69,124.99L781.48,126.05L781.29,127.11L781.12,128.17L780.95,129.24L780.80,130.31L780.66,131.38L780.54,132.45L780.42,133.52L780.32,134.59L780.24,135.67L780.17,136.74L780.11,137.82L780.06,138.90L780.03,139.98L780.01,141.05L780.00,142.13L780.01,143.21L780.03,144.29L780.06,145.37L780.11,146.44L780.17,147.52L780.24,148.60L780.32,149.67L780.42,150.74L780.54,151.82L780.66,152.89L780.80,153.96L780.95,155.02L781.12,156.09L781.29,157.15L781.48,158.22L781.69,159.27L781.91,160.33L782.14,161.38L782.38,162.43L782.63,163.48L782.90,164.53L783.18,165.57L783.48,166.60L783.78,167.64L784.10,168.67L784.43,169.69L784.78,170.72L785.14,171.73L785.51,172.75L785.89,173.76L786.28,174.76L786.69,175.76L787.11,176.75L787.54,177.74L787.98,178.72L788.44,179.70L788.90,180.67L789.38,181.64L789.87,182.60L790.38,183.55L790.89,184.50L791.42,185.44L791.95,186.38L792.50,187.31L793.06,188.23L793.63,189.14L794.21,190.05L794.81,190.95L795.41,191.84L796.03,192.73L796.65,193.60L797.29,194.47L797.94,195.34L798.60,196.19L799.27,197.04L799.95,197.87L800.63,198.70L801.33,199.53L802.04,200.34L802.76,201.14L803.49,201.94L804.23,202.72L804.98,203.50L805.74,204.26L806.50,205.02L807.28,205.77L808.06,206.51L808.86,207.24L809.66,207.96L810.47,208.67L811.30,209.37L812.13,210.05L812.96,210.73L813.81,211.40L814.66,212.06L815.53,212.71L816.40,213.35L817.27,213.97L818.16,214.59L819.05,215.19L819.95,215.79L820.86,216.37L821.77,216.94L822.69,217.50L823.62,218.05L824.56,218.58L825.50,219.11L826.45,219.62L827.40,220.13L828.36,220.62L829.33,221.10L830.30,221.56L831.28,222.02L832.26,222.46L833.25,222.89L834.24,223.31L835.24,223.72L836.24,224.11L837.25,224.49L838.27,224.86L839.28,225.22L840.31,225.57L841.33,225.90L842.36,226.22L843.40,226.52L844.43,226.82L845.47,227.10L846.52,227.37L847.57,227.62L848.62,227.86L849.67,228.09L850.73,228.31L851.78,228.52L852.85,228.71L853.91,228.88L854.98,229.05L856.04,229.20L857.11,229.34L858.18,229.46L859.26,229.58L860.33,229.68L861.40,229.76L862.48,229.83L863.56,229.89L864.63,229.94L865.71,229.97L866.79,229.99L867.87,230.00L868.95,229.99L870.02,229.97L871.10,229.94L872.18,229.89L873.26,229.83L874.33,229.76L875.41,229.68L876.48,229.58L877.55,229.46L878.62,229.34L879.69,229.20L880.76,229.05L881.83,228.88L882.89,228.71L883.95,228.52L885.01,228.31L886.07,228.09L887.12,227.86L888.17,227.62L889.22,227.37L890.26,227.10L891.30,226.82L892.34,226.52L893.37,226.22L894.40,225.90L895.43,225.57L896.45,225.22L897.47,224.86L898.48,224.49L899.49,224.11L900.49,223.72L901.49,223.31L902.49,222.89L903.48,222.46L904.46,222.02L905.44,221.56L906.41,221.10L907.37,220.62L908.33,220.13L909.29,219.62L910.24,219.11L911.18,218.58L912.11,218.05L913.04,217.50L913.96,216.94L914.88,216.37L915.78,215.79L916.68,215.19L917.58,214.59L918.46,213.97L919.34,213.35L920.21,212.71L921.07,212.06L921.93,211.40L922.77,210.73L923.61,210.05L924.44,209.37L925.26,208.67L926.07,207.96L926.88,207.24L927.67,206.51L928.46,205.77L929.23,205.02L930.00,204.26L984.88,149.38L860.62,25.12Z" fill="url(#cfL)"/><path d="M1055.02,79.23L1055.77,78.46L1056.51,77.67L1057.24,76.88L1057.96,76.07L1058.67,75.26L1059.37,74.44L1060.05,73.61L1060.73,72.77L1061.40,71.93L1062.06,71.07L1062.71,70.21L1063.35,69.34L1063.97,68.46L1064.59,67.58L1065.19,66.68L1065.79,65.78L1066.37,64.88L1066.94,63.96L1067.50,63.04L1068.05,62.11L1068.58,61.18L1069.11,60.24L1069.62,59.29L1070.13,58.33L1070.62,57.37L1071.10,56.41L1071.56,55.44L1072.02,54.46L1072.46,53.48L1072.89,52.49L1073.31,51.49L1073.72,50.49L1074.11,49.49L1074.49,48.48L1074.86,47.47L1075.22,46.45L1075.57,45.43L1075.90,44.40L1076.22,43.37L1076.52,42.34L1076.82,41.30L1077.10,40.26L1077.37,39.22L1077.62,38.17L1077.86,37.12L1078.09,36.07L1078.31,35.01L1078.52,33.95L1078.71,32.89L1078.88,31.83L1079.05,30.76L1079.20,29.69L1079.34,28.62L1079.46,27.55L1079.58,26.48L1079.68,25.41L1079.76,24.33L1079.83,23.26L1079.89,22.18L1079.94,21.10L1079.97,20.02L1079.99,18.95L1080.00,17.87L1079.99,16.79L1079.97,15.71L1079.94,14.63L1079.89,13.56L1079.83,12.48L1079.76,11.40L1079.68,10.33L1079.58,9.26L1079.46,8.18L1079.34,7.11L1079.20,6.04L1079.05,4.98L1078.88,3.91L1078.71,2.85L1078.52,1.78L1078.31,0.73L1078.09,-0.33L1077.86,-1.38L1077.62,-2.43L1077.37,-3.48L1077.10,-4.53L1076.82,-5.57L1076.52,-6.60L1076.22,-7.64L1075.90,-8.67L1075.57,-9.69L1075.22,-10.72L1074.86,-11.73L1074.49,-12.75L1074.11,-13.76L1073.72,-14.76L1073.31,-15.76L1072.89,-16.75L1072.46,-17.74L1072.02,-18.72L1071.56,-19.70L1071.10,-20.67L1070.62,-21.64L1070.13,-22.60L1069.62,-23.55L1069.11,-24.50L1068.58,-25.44L1068.05,-26.38L1067.50,-27.31L1066.94,-28.23L1066.37,-29.14L1065.79,-30.05L1065.19,-30.95L1064.59,-31.84L1063.97,-32.73L1063.35,-33.60L1062.71,-34.47L1062.06,-35.34L1061.40,-36.19L1060.73,-37.04L1060.05,-37.87L1059.37,-38.70L1058.67,-39.53L1057.96,-40.34L1057.24,-41.14L1056.51,-41.94L1055.77,-42.72L1055.02,-43.50L1054.26,-44.26L1053.50,-45.02L1052.72,-45.77L1051.94,-46.51L1051.14,-47.24L1050.34,-47.96L1049.53,-48.67L1048.70,-49.37L1047.87,-50.05L1047.04,-50.73L1046.19,-51.40L1045.34,-52.06L1044.47,-52.71L1043.60,-53.35L1042.73,-53.97L1041.84,-54.59L1040.95,-55.19L1040.05,-55.79L1039.14,-56.37L1038.23,-56.94L1037.31,-57.50L1036.38,-58.05L1035.44,-58.58L1034.50,-59.11L1033.55,-59.62L1032.60,-60.13L1031.64,-60.62L1030.67,-61.10L1029.70,-61.56L1028.72,-62.02L1027.74,-62.46L1026.75,-62.89L1025.76,-63.31L1024.76,-63.72L1023.76,-64.11L1022.75,-64.49L1021.73,-64.86L1020.72,-65.22L1019.69,-65.57L1018.67,-65.90L1017.64,-66.22L1016.60,-66.52L1015.57,-66.82L1014.53,-67.10L1013.48,-67.37L1012.43,-67.62L1011.38,-67.86L1010.33,-68.09L1009.27,-68.31L1008.22,-68.52L1007.15,-68.71L1006.09,-68.88L1005.02,-69.05L1003.96,-69.20L1002.89,-69.34L1001.82,-69.46L1000.74,-69.58L999.67,-69.68L998.60,-69.76L997.52,-69.83L996.44,-69.89L995.37,-69.94L994.29,-69.97L993.21,-69.99L992.13,-70.00L991.05,-69.99L989.98,-69.97L988.90,-69.94L987.82,-69.89L986.74,-69.83L985.67,-69.76L984.59,-69.68L983.52,-69.58L982.45,-69.46L981.38,-69.34L980.31,-69.20L979.24,-69.05L978.17,-68.88L977.11,-68.71L976.05,-68.52L974.99,-68.31L973.93,-68.09L972.88,-67.86L971.83,-67.62L970.78,-67.37L969.74,-67.10L968.70,-66.82L967.66,-66.52L966.63,-66.22L965.60,-65.90L964.57,-65.57L963.55,-65.22L962.53,-64.86L961.52,-64.49L960.51,-64.11L959.51,-63.72L958.51,-63.31L957.51,-62.89L956.52,-62.46L955.54,-62.02L954.56,-61.56L953.59,-61.10L952.63,-60.62L951.67,-60.13L950.71,-59.62L949.76,-59.11L948.82,-58.58L947.89,-58.05L946.96,-57.50L946.04,-56.94L945.12,-56.37L944.22,-55.79L943.32,-55.19L942.42,-54.59L941.54,-53.97L940.66,-53.35L939.79,-52.71L938.93,-52.06L938.07,-51.40L937.23,-50.73L936.39,-50.05L935.56,-49.37L934.74,-48.67L933.93,-47.96L933.12,-47.24L932.33,-46.51L931.54,-45.77L930.77,-45.02L930.00,-44.26L875.12,10.62L999.38,134.88L1054.26,80.00Z" fill="url(#cfR)"/></g><svg x="245.0" y="185.3" width="560.0" height="217.5" viewBox="0 0 927 360"><defs><linearGradient id="gL" gradientUnits="userSpaceOnUse" x1="676.3" y1="0" x2="689.6" y2="0"><stop offset="0" stop-color="#D2F57F"/><stop offset="1" stop-color="#2BC08E"/></linearGradient><linearGradient id="gR" gradientUnits="userSpaceOnUse" x1="694.4" y1="0" x2="707.8" y2="0"><stop offset="0" stop-color="#1A8FA0"/><stop offset="1" stop-color="#7FE3D2"/></linearGradient></defs><g transform="translate(77.81,190.00)"><path d="M12.20,0.01L12.20,0.01L12.20,0.01L12.20,0.01L12.20,0.01L12.20,0.01L12.19,0.01L12.19,0.01L12.19,0.01L12.19,0.01L12.19,0.01L12.19,0.00L12.19,0.00L12.19,0.00L12.19,0.00L12.19,0.00L12.19,0.00L12.19,-100.00L12.19,-100.00L12.19,-100.00L12.19,-100.00L12.19,-100.00L12.19,-100.00L12.19,-100.01L12.19,-100.01L12.19,-100.01L12.19,-100.01L12.19,-100.01L12.20,-100.01L12.20,-100.01L12.20,-100.01L12.20,-100.01L12.20,-100.01L12.20,-100.01L42.60,-100.01L42.60,-100.01L42.60,-100.01L42.60,-100.01L42.60,-100.01L42.60,-100.01L42.61,-100.01L42.61,-100.01L42.61,-100.01L42.61,-100.01L42.61,-100.01L42.61,-100.00L42.61,-100.00L42.61,-100.00L42.61,-100.00L42.61,-100.00L43.66,-80.02L43.84,-80.46L43.84,-80.46L44.17,-81.22L44.17,-81.22L44.52,-81.96L44.52,-81.96L44.87,-82.69L44.87,-82.69L45.24,-83.40L45.24,-83.40L45.62,-84.10L45.62,-84.10L46.01,-84.79L46.01,-84.79L46.41,-85.47L46.41,-85.47L46.83,-86.13L46.83,-86.13L47.25,-86.77L47.25,-86.77L47.69,-87.41L47.69,-87.41L48.14,-88.03L48.14,-88.03L48.60,-88.63L48.60,-88.63L49.07,-89.22L49.07,-89.23L49.54,-89.80L49.54,-89.81L50.03,-90.37L50.03,-90.37L50.53,-90.93L50.53,-90.93L51.04,-91.47L51.04,-91.47L51.56,-91.99L51.56,-91.99L52.08,-92.51L52.08,-92.51L52.62,-93.01L52.62,-93.01L53.17,-93.49L53.17,-93.49L53.72,-93.97L53.72,-93.97L54.29,-94.43L54.29,-94.43L54.87,-94.88L54.87,-94.88L55.45,-95.31L55.45,-95.31L56.05,-95.73L56.05,-95.73L56.65,-96.14L56.65,-96.14L57.27,-96.53L57.27,-96.53L57.90,-96.92L57.90,-96.92L58.53,-97.28L58.53,-97.28L59.18,-97.64L59.18,-97.64L59.83,-97.98L59.83,-97.98L60.50,-98.31L60.50,-98.31L61.17,-98.62L61.17,-98.62L61.85,-98.92L61.85,-98.92L62.54,-99.21L62.54,-99.21L63.23,-99.48L63.23,-99.48L63.93,-99.74L63.93,-99.74L64.64,-99.99L64.64,-99.99L65.36,-100.22L65.36,-100.22L66.08,-100.44L66.08,-100.44L66.81,-100.64L66.81,-100.64L67.55,-100.83L67.55,-100.83L68.30,-101.00L68.30,-101.00L69.05,-101.16L69.05,-101.16L69.81,-101.31L69.81,-101.31L70.58,-101.44L70.58,-101.44L71.35,-101.56L71.35,-101.56L72.13,-101.67L72.13,-101.67L72.92,-101.76L72.92,-101.76L73.71,-101.84L73.72,-101.84L74.52,-101.90L74.52,-101.90L75.33,-101.95L75.33,-101.95L76.14,-101.98L76.14,-101.98L76.97,-102.00L76.97,-102.00L77.80,-102.01L77.80,-102.01L78.70,-102.00L78.70,-102.00L79.59,-101.98L79.59,-101.98L80.47,-101.94L80.47,-101.94L81.34,-101.89L81.34,-101.89L82.19,-101.82L82.20,-101.82L83.04,-101.74L83.04,-101.74L83.88,-101.64L83.88,-101.64L84.71,-101.53L84.71,-101.53L85.53,-101.40L85.53,-101.40L86.33,-101.25L86.34,-101.25L87.13,-101.09L87.13,-101.09L87.92,-100.92L87.92,-100.92L88.70,-100.73L88.70,-100.73L89.46,-100.53L89.46,-100.53L90.22,-100.31L90.22,-100.31L90.97,-100.07L90.97,-100.07L91.70,-99.82L91.70,-99.82L92.43,-99.56L92.43,-99.56L93.14,-99.28L93.14,-99.28L93.85,-98.98L93.85,-98.98L94.54,-98.67L94.54,-98.67L95.23,-98.35L95.23,-98.35L95.90,-98.01L95.90,-98.01L96.57,-97.65L96.57,-97.65L97.22,-97.28L97.22,-97.28L97.86,-96.90L97.86,-96.90L98.48,-96.50L98.48,-96.50L99.10,-96.09L99.10,-96.09L99.70,-95.66L99.70,-95.66L100.29,-95.22L100.29,-95.22L100.86,-94.77L100.86,-94.77L101.43,-94.30L101.43,-94.30L101.98,-93.81L101.98,-93.81L102.52,-93.31L102.52,-93.31L103.04,-92.80L103.04,-92.80L103.56,-92.27L103.56,-92.27L104.06,-91.73L104.06,-91.73L104.55,-91.17L104.55,-91.17L105.02,-90.60L105.02,-90.60L105.49,-90.02L105.49,-90.02L105.94,-89.42L105.94,-89.42L106.38,-88.80L106.38,-88.80L106.80,-88.18L106.80,-88.18L107.22,-87.53L107.22,-87.53L107.62,-86.88L107.62,-86.88L108.01,-86.21L108.01,-86.20L108.38,-85.52L108.38,-85.52L108.74,-84.82L108.74,-84.82L109.08,-84.10L109.08,-84.10L109.41,-83.37L109.41,-83.37L109.71,-82.62L109.71,-82.62L110.01,-81.86L110.01,-81.86L110.28,-81.08L110.28,-81.08L110.54,-80.29L110.54,-80.29L110.78,-79.49L110.78,-79.49L111.00,-78.66L111.00,-78.66L111.21,-77.83L111.21,-77.83L111.40,-76.97L111.40,-76.97L111.58,-76.11L111.58,-76.11L111.74,-75.22L111.74,-75.22L111.88,-74.33L111.88,-74.33L112.00,-73.41L112.00,-73.41L112.11,-72.49L112.11,-72.49L112.20,-71.54L112.20,-71.54L112.28,-70.58L112.28,-70.58L112.34,-69.61L112.34,-69.61L112.38,-68.62L112.38,-68.62L112.40,-67.62L112.40,-67.62L112.41,-66.60L112.41,-66.60L112.41,0.00L112.41,0.00L112.41,0.00L112.41,0.00L112.41,0.00L112.41,0.00L112.41,0.01L112.41,0.01L112.41,0.01L112.41,0.01L112.41,0.01L112.40,0.01L112.40,0.01L112.40,0.01L112.40,0.01L112.40,0.01L112.40,0.01L78.40,0.01L78.40,0.01L78.40,0.01L78.40,0.01L78.40,0.01L78.40,0.01L78.39,0.01L78.39,0.01L78.39,0.01L78.39,0.01L78.39,0.01L78.39,0.00L78.39,0.00L78.39,0.00L78.39,0.00L78.39,0.00L78.39,0.00L78.39,-57.60L78.38,-58.49L78.36,-59.36L78.32,-60.20L78.27,-61.02L78.20,-61.82L78.12,-62.59L78.02,-63.34L77.91,-64.06L77.78,-64.76L77.63,-65.43L77.48,-66.08L77.30,-66.71L77.11,-67.31L76.91,-67.89L76.69,-68.44L76.46,-68.97L76.21,-69.47L75.94,-69.95L75.66,-70.41L75.37,-70.84L75.06,-71.25L74.73,-71.63L74.39,-71.99L74.04,-72.33L73.68,-72.66L73.31,-72.97L72.94,-73.26L72.55,-73.54L72.16,-73.81L71.76,-74.06L71.35,-74.29L70.93,-74.51L70.50,-74.71L70.07,-74.90L69.62,-75.08L69.17,-75.23L68.71,-75.38L68.24,-75.51L67.77,-75.62L67.28,-75.72L66.79,-75.80L66.29,-75.87L65.78,-75.92L65.26,-75.96L64.73,-75.98L64.20,-75.99L63.78,-75.99L63.37,-75.97L62.96,-75.95L62.55,-75.92L62.14,-75.88L61.74,-75.83L61.34,-75.78L60.94,-75.71L60.54,-75.64L60.14,-75.56L59.75,-75.46L59.36,-75.36L58.97,-75.26L58.58,-75.14L58.20,-75.01L57.82,-74.88L57.44,-74.73L57.06,-74.58L56.68,-74.42L56.31,-74.25L55.94,-74.07L55.57,-73.89L55.20,-73.69L54.84,-73.49L54.49,-73.27L54.14,-73.05L53.80,-72.81L53.47,-72.56L53.14,-72.31L52.82,-72.04L52.50,-71.77L52.20,-71.48L51.90,-71.18L51.60,-70.88L51.31,-70.56L51.03,-70.23L50.76,-69.89L50.50,-69.55L50.24,-69.19L49.98,-68.82L49.74,-68.44L49.50,-68.05L49.27,-67.65L49.04,-67.24L48.82,-66.83L48.61,-66.40L48.40,-65.95L48.21,-65.50L48.02,-65.03L47.85,-64.55L47.68,-64.06L47.52,-63.56L47.37,-63.04L47.23,-62.51L47.10,-61.96L46.98,-61.41L46.86,-60.84L46.76,-60.26L46.66,-59.66L46.58,-59.05L46.50,-58.43L46.43,-57.80L46.37,-57.15L46.32,-56.49L46.28,-55.82L46.25,-55.13L46.23,-54.43L46.21,-53.72L46.21,-53.00L46.21,0.00L46.21,0.00L46.21,0.00L46.21,0.00L46.21,0.00L46.21,0.00L46.21,0.01L46.21,0.01L46.21,0.01L46.21,0.01L46.21,0.01L46.20,0.01L46.20,0.01L46.20,0.01L46.20,0.01L46.20,0.01L46.20,0.01Z" fill="#F1F6F1" fill-rule="evenodd"/><path d="M166.33,-41.39L166.40,-40.87L166.52,-40.18L166.64,-39.51L166.77,-38.84L166.92,-38.19L167.07,-37.56L167.23,-36.94L167.40,-36.33L167.58,-35.74L167.78,-35.16L167.98,-34.59L168.19,-34.04L168.41,-33.50L168.64,-32.98L168.88,-32.47L169.12,-31.97L169.38,-31.49L169.64,-31.01L169.91,-30.55L170.19,-30.11L170.48,-29.67L170.78,-29.25L171.08,-28.84L171.40,-28.45L171.72,-28.07L172.05,-27.70L172.39,-27.34L172.73,-27.00L173.09,-26.67L173.45,-26.35L173.82,-26.04L174.20,-25.75L174.59,-25.47L174.99,-25.20L175.39,-24.95L175.80,-24.71L176.23,-24.48L176.65,-24.26L177.09,-24.05L177.53,-23.85L177.99,-23.66L178.44,-23.48L178.91,-23.32L179.38,-23.16L179.87,-23.01L180.35,-22.87L180.85,-22.74L181.36,-22.63L181.87,-22.52L182.39,-22.42L182.91,-22.34L183.45,-22.26L183.99,-22.19L184.54,-22.14L185.10,-22.09L185.66,-22.06L186.23,-22.03L186.81,-22.02L187.40,-22.01L188.05,-22.02L188.70,-22.03L189.33,-22.06L189.95,-22.10L190.56,-22.15L191.15,-22.21L191.74,-22.29L192.31,-22.37L192.87,-22.47L193.42,-22.58L193.96,-22.70L194.48,-22.83L195.00,-22.97L195.50,-23.12L195.99,-23.29L196.47,-23.46L196.94,-23.65L197.39,-23.85L197.84,-24.06L198.27,-24.28L198.69,-24.51L199.10,-24.75L199.49,-25.01L199.88,-25.27L200.26,-25.55L200.63,-25.83L200.99,-26.12L201.34,-26.43L201.68,-26.74L202.02,-27.06L202.34,-27.38L202.66,-27.72L202.97,-28.07L203.27,-28.42L203.56,-28.79L203.84,-29.16L204.12,-29.55L204.38,-29.94L204.64,-30.34L204.89,-30.75L205.13,-31.17L205.36,-31.60L205.58,-32.04L205.79,-32.48L206.00,-32.94L206.19,-33.40L206.19,-33.40L206.19,-33.41L206.19,-33.41L206.19,-33.41L206.19,-33.41L206.19,-33.41L206.20,-33.41L206.20,-33.41L206.20,-33.41L206.20,-33.41L206.20,-33.41L206.20,-33.41L206.20,-33.41L206.20,-33.41L206.20,-33.41L233.40,-24.41L233.40,-24.41L233.40,-24.41L233.41,-24.41L233.41,-24.41L233.41,-24.41L233.41,-24.41L233.41,-24.41L233.41,-24.40L233.41,-24.40L233.41,-24.40L233.41,-24.40L233.41,-24.40L233.41,-24.40L233.41,-24.40L233.41,-24.40L233.41,-24.40L233.16,-23.65L233.16,-23.65L232.89,-22.92L232.89,-22.92L232.61,-22.20L232.61,-22.20L232.31,-21.49L232.31,-21.49L232.00,-20.78L232.00,-20.78L231.67,-20.09L231.67,-20.09L231.32,-19.41L231.32,-19.41L230.96,-18.74L230.96,-18.74L230.59,-18.08L230.59,-18.08L230.20,-17.43L230.20,-17.43L229.79,-16.79L229.79,-16.79L229.37,-16.16L229.37,-16.16L228.93,-15.54L228.93,-15.53L228.48,-14.92L228.48,-14.92L228.01,-14.32L228.01,-14.32L227.53,-13.74L227.53,-13.73L227.03,-13.16L227.03,-13.16L226.51,-12.59L226.51,-12.59L225.98,-12.03L225.98,-12.03L225.44,-11.48L225.44,-11.48L224.88,-10.94L224.88,-10.94L224.30,-10.41L224.30,-10.41L223.71,-9.89L223.71,-9.89L223.10,-9.38L223.10,-9.38L222.49,-8.89L222.49,-8.89L221.86,-8.40L221.86,-8.40L221.23,-7.93L221.23,-7.93L220.58,-7.46L220.58,-7.46L219.93,-7.01L219.93,-7.01L219.26,-6.57L219.26,-6.57L218.59,-6.14L218.59,-6.14L217.91,-5.72L217.91,-5.72L217.21,-5.31L217.21,-5.31L216.51,-4.91L216.51,-4.91L215.80,-4.52L215.80,-4.52L215.07,-4.15L215.07,-4.15L214.34,-3.78L214.34,-3.78L213.60,-3.43L213.60,-3.43L212.85,-3.09L212.85,-3.09L212.08,-2.75L212.08,-2.75L211.31,-2.43L211.31,-2.43L210.53,-2.12L210.53,-2.12L209.74,-1.82L209.74,-1.82L208.94,-1.53L208.94,-1.53L208.12,-1.26L208.12,-1.26L207.30,-0.99L207.30,-0.99L206.48,-0.74L206.48,-0.74L205.64,-0.49L205.64,-0.49L204.81,-0.26L204.81,-0.26L203.97,-0.04L203.97,-0.04L203.13,0.17L203.13,0.17L202.28,0.37L202.28,0.37L201.44,0.56L201.44,0.56L200.58,0.73L200.58,0.73L199.73,0.90L199.73,0.90L198.87,1.05L198.87,1.05L198.01,1.19L198.01,1.19L197.14,1.32L197.14,1.32L196.27,1.44L196.27,1.44L195.40,1.55L195.40,1.55L194.53,1.65L194.53,1.65L193.65,1.73L193.65,1.73L192.77,1.81L192.77,1.81L191.88,1.87L191.88,1.87L190.99,1.92L190.99,1.92L190.10,1.96L190.10,1.96L189.20,1.99L189.20,1.99L188.30,2.00L188.30,2.00L187.40,2.01L187.40,2.01L185.96,2.00L185.96,2.00L184.55,1.96L184.55,1.96L183.15,1.90L183.15,1.90L181.76,1.82L181.76,1.82L180.39,1.72L180.39,1.72L179.04,1.59L179.04,1.59L177.71,1.44L177.71,1.44L176.40,1.26L176.40,1.26L175.10,1.06L175.10,1.06L173.81,0.84L173.81,0.84L172.55,0.59L172.55,0.59L171.30,0.32L171.30,0.32L170.07,0.03L170.07,0.03L168.86,-0.29L168.86,-0.29L167.66,-0.63L167.66,-0.63L166.48,-0.99L166.48,-0.99L165.32,-1.38L165.32,-1.38L164.17,-1.79L164.17,-1.79L163.04,-2.22L163.04,-2.22L161.93,-2.68L161.93,-2.68L160.83,-3.16L160.83,-3.16L159.76,-3.66L159.76,-3.66L158.70,-4.19L158.70,-4.19L157.65,-4.74L157.65,-4.74L156.63,-5.31L156.63,-5.31L155.63,-5.90L155.63,-5.90L154.65,-6.51L154.65,-6.51L153.69,-7.14L153.69,-7.14L152.76,-7.79L152.76,-7.79L151.84,-8.47L151.84,-8.47L150.94,-9.16L150.94,-9.16L150.07,-9.87L150.07,-9.87L149.21,-10.60L149.21,-10.60L148.38,-11.36L148.38,-11.36L147.56,-12.13L147.56,-12.13L146.77,-12.93L146.77,-12.93L146.00,-13.74L146.00,-13.74L145.25,-14.58L145.25,-14.58L144.52,-15.43L144.52,-15.43L143.81,-16.31L143.81,-16.31L143.12,-17.21L143.12,-17.21L142.45,-18.12L142.45,-18.12L141.81,-19.06L141.81,-19.06L141.18,-20.02L141.18,-20.02L140.58,-21.00L140.58,-21.00L139.99,-21.99L139.99,-22.00L139.43,-23.01L139.43,-23.01L138.89,-24.05L138.89,-24.05L138.38,-25.10L138.38,-25.10L137.89,-26.18L137.89,-26.18L137.43,-27.27L137.43,-27.27L137.00,-28.38L137.00,-28.38L136.58,-29.50L136.58,-29.50L136.20,-30.65L136.20,-30.65L135.84,-31.81L135.84,-31.81L135.50,-32.99L135.50,-32.99L135.19,-34.19L135.19,-34.19L134.90,-35.41L134.90,-35.41L134.64,-36.64L134.64,-36.64L134.40,-37.90L134.40,-37.90L134.19,-39.17L134.19,-39.17L134.00,-40.46L134.00,-40.46L133.84,-41.77L133.84,-41.77L133.70,-43.10L133.70,-43.10L133.59,-44.44L133.59,-44.44L133.50,-45.80L133.50,-45.80L133.44,-47.18L133.44,-47.18L133.40,-48.58L133.40,-48.58L133.39,-50.00L133.39,-50.00L133.40,-51.42L133.40,-51.42L133.44,-52.82L133.44,-52.82L133.50,-54.20L133.50,-54.20L133.59,-55.56L133.59,-55.56L133.70,-56.90L133.70,-56.90L133.84,-58.23L133.84,-58.23L134.00,-59.54L134.00,-59.54L134.19,-60.83L134.19,-60.83L134.40,-62.10L134.40,-62.10L134.64,-63.36L134.64,-63.36L134.90,-64.59L134.90,-64.59L135.19,-65.81L135.19,-65.81L135.50,-67.01L135.50,-67.01L135.84,-68.19L135.84,-68.19L136.20,-69.35L136.20,-69.35L136.58,-70.50L136.58,-70.50L137.00,-71.62L137.00,-71.62L137.43,-72.73L137.43,-72.73L137.89,-73.82L137.89,-73.82L138.38,-74.90L138.38,-74.90L138.89,-75.95L138.89,-75.95L139.43,-76.99L139.43,-76.99L139.99,-78.00L139.99,-78.01L140.58,-79.00L140.58,-79.00L141.18,-79.98L141.18,-79.98L141.80,-80.94L141.80,-80.94L142.45,-81.88L142.45,-81.88L143.11,-82.79L143.11,-82.79L143.80,-83.69L143.80,-83.69L144.50,-84.57L144.50,-84.57L145.22,-85.42L145.23,-85.42L145.97,-86.26L145.97,-86.26L146.73,-87.07L146.73,-87.07L147.52,-87.87L147.52,-87.87L148.32,-88.64L148.32,-88.64L149.15,-89.40L149.15,-89.40L149.99,-90.13L149.99,-90.13L150.86,-90.84L150.86,-90.84L151.74,-91.53L151.74,-91.53L152.65,-92.21L152.65,-92.21L153.57,-92.86L153.57,-92.86L154.52,-93.49L154.52,-93.49L155.48,-94.10L155.48,-94.10L156.47,-94.69L156.47,-94.69L157.47,-95.26L157.47,-95.26L158.50,-95.81L158.50,-95.81L159.54,-96.34L159.54,-96.34L160.59,-96.84L160.59,-96.84L161.66,-97.32L161.66,-97.32L162.74,-97.78L162.74,-97.78L163.84,-98.21L163.84,-98.21L164.94,-98.62L164.94,-98.62L166.06,-99.01L166.06,-99.01L167.20,-99.37L167.20,-99.37L168.35,-99.71L168.35,-99.71L169.51,-100.03L169.51,-100.03L170.68,-100.32L170.68,-100.32L171.87,-100.59L171.87,-100.59L173.07,-100.84L173.07,-100.84L174.28,-101.06L174.28,-101.06L175.51,-101.26L175.51,-101.26L176.75,-101.44L176.75,-101.44L178.00,-101.59L178.00,-101.59L179.27,-101.72L179.27,-101.72L180.55,-101.82L180.55,-101.82L181.84,-101.90L181.84,-101.90L183.15,-101.96L183.15,-101.96L184.47,-102.00L184.47,-102.00L185.80,-102.01L185.80,-102.01L187.17,-102.00L187.17,-102.00L188.51,-101.96L188.51,-101.96L189.84,-101.91L189.84,-101.91L191.15,-101.83L191.15,-101.83L192.45,-101.72L192.45,-101.72L193.72,-101.59L193.72,-101.59L194.98,-101.44L194.98,-101.44L196.22,-101.27L196.22,-101.27L197.45,-101.08L197.45,-101.08L198.65,-100.86L198.65,-100.86L199.84,-100.61L199.84,-100.61L201.01,-100.35L201.01,-100.35L202.16,-100.06L202.16,-100.06L203.30,-99.75L203.30,-99.75L204.41,-99.42L204.41,-99.41L205.51,-99.06L205.51,-99.06L206.59,-98.68L206.59,-98.68L207.66,-98.27L207.66,-98.27L208.70,-97.85L208.70,-97.85L209.73,-97.40L209.73,-97.40L210.74,-96.92L210.74,-96.92L211.73,-96.43L211.73,-96.43L212.70,-95.91L212.70,-95.91L213.66,-95.37L213.66,-95.37L214.60,-94.81L214.60,-94.81L215.51,-94.24L215.51,-94.24L216.41,-93.65L216.41,-93.65L217.28,-93.04L217.28,-93.04L218.14,-92.41L218.14,-92.41L218.97,-91.77L218.97,-91.77L219.79,-91.11L219.79,-91.11L220.58,-90.43L220.58,-90.43L221.36,-89.73L221.36,-89.73L222.11,-89.02L222.11,-89.02L222.85,-88.29L222.85,-88.29L223.56,-87.54L223.56,-87.54L224.26,-86.78L224.26,-86.78L224.93,-85.99L224.93,-85.99L225.59,-85.19L225.59,-85.19L226.22,-84.38L226.22,-84.38L226.84,-83.54L226.84,-83.54L227.43,-82.69L227.43,-82.69L228.01,-81.82L228.01,-81.82L228.56,-80.93L228.56,-80.93L229.09,-80.03L229.09,-80.03L229.61,-79.10L229.61,-79.10L230.10,-78.17L230.10,-78.17L230.57,-77.22L230.57,-77.22L231.02,-76.26L231.02,-76.26L231.45,-75.29L231.45,-75.29L231.86,-74.31L231.86,-74.30L232.24,-73.31L232.24,-73.31L232.60,-72.30L232.60,-72.30L232.94,-71.28L232.94,-71.28L233.26,-70.25L233.26,-70.25L233.56,-69.21L233.56,-69.21L233.83,-68.16L233.83,-68.16L234.08,-67.09L234.08,-67.09L234.31,-66.02L234.31,-66.02L234.52,-64.93L234.52,-64.93L234.71,-63.83L234.71,-63.83L234.87,-62.71L234.87,-62.71L235.02,-61.59L235.02,-61.59L235.14,-60.45L235.14,-60.45L235.23,-59.31L235.23,-59.31L235.31,-58.15L235.31,-58.15L235.37,-56.98L235.37,-56.98L235.40,-55.79L235.40,-55.79L235.41,-54.60L235.41,-54.60L235.41,-54.29L235.41,-54.29L235.41,-53.97L235.41,-53.97L235.41,-53.66L235.41,-53.66L235.40,-53.35L235.40,-53.35L235.40,-53.03L235.40,-53.03L235.40,-52.72L235.40,-52.72L235.39,-52.41L235.39,-52.41L235.39,-52.10L235.39,-52.10L235.38,-51.78L235.38,-51.78L235.37,-51.47L235.37,-51.47L235.36,-51.16L235.36,-51.16L235.36,-50.84L235.36,-50.84L235.35,-50.53L235.35,-50.53L235.34,-50.22L235.34,-50.22L235.32,-49.90L235.32,-49.90L235.31,-49.59L235.31,-49.59L235.30,-49.28L235.30,-49.28L235.29,-48.96L235.29,-48.96L235.27,-48.65L235.27,-48.65L235.26,-48.34L235.26,-48.34L235.24,-48.03L235.24,-48.03L235.23,-47.71L235.23,-47.71L235.21,-47.40L235.21,-47.40L235.19,-47.09L235.19,-47.09L235.17,-46.78L235.17,-46.78L235.15,-46.48L235.15,-46.48L235.13,-46.18L235.13,-46.18L235.11,-45.89L235.11,-45.89L235.09,-45.60L235.09,-45.60L235.07,-45.32L235.07,-45.32L235.05,-45.04L235.05,-45.04L235.02,-44.77L235.02,-44.77L235.00,-44.50L235.00,-44.50L234.97,-44.23L234.97,-44.23L234.95,-43.97L234.95,-43.97L234.92,-43.71L234.92,-43.71L234.89,-43.46L234.89,-43.46L234.86,-43.21L234.86,-43.21L234.83,-42.97L234.83,-42.97L234.81,-42.73L234.81,-42.73L234.77,-42.50L234.77,-42.50L234.74,-42.27L234.74,-42.27L234.71,-42.05L234.71,-42.05L234.68,-41.82L234.68,-41.82L234.64,-41.61L234.64,-41.61L234.61,-41.40L234.61,-41.40L234.61,-41.40L234.61,-41.40L234.61,-41.39L234.61,-41.39L234.61,-41.39L234.61,-41.39L234.61,-41.39L234.60,-41.39L234.60,-41.39L234.60,-41.39L234.60,-41.39L234.60,-41.39L234.60,-41.39ZM166.55,-59.61L203.06,-59.61L202.99,-60.18L202.87,-61.07L202.73,-61.93L202.58,-62.77L202.41,-63.60L202.22,-64.39L202.02,-65.17L201.80,-65.93L201.56,-66.67L201.31,-67.38L201.04,-68.08L200.76,-68.75L200.46,-69.40L200.14,-70.03L199.81,-70.64L199.46,-71.23L199.09,-71.79L198.71,-72.34L198.31,-72.86L197.89,-73.35L197.46,-73.83L197.00,-74.27L196.53,-74.70L196.04,-75.09L195.53,-75.47L195.01,-75.82L194.47,-76.15L193.91,-76.45L193.33,-76.73L192.73,-76.98L192.12,-77.21L191.49,-77.42L190.84,-77.60L190.17,-77.75L189.49,-77.89L188.79,-78.00L188.07,-78.08L187.33,-78.14L186.57,-78.18L185.80,-78.19L185.25,-78.18L184.70,-78.17L184.16,-78.14L183.63,-78.10L183.11,-78.05L182.59,-77.99L182.08,-77.91L181.58,-77.83L181.08,-77.73L180.60,-77.62L180.12,-77.50L179.64,-77.37L179.18,-77.23L178.72,-77.08L178.26,-76.91L177.82,-76.74L177.38,-76.55L176.95,-76.35L176.53,-76.14L176.11,-75.92L175.70,-75.69L175.30,-75.45L174.91,-75.19L174.52,-74.92L174.14,-74.64L173.77,-74.35L173.41,-74.05L173.05,-73.73L172.71,-73.40L172.37,-73.05L172.04,-72.70L171.72,-72.33L171.41,-71.94L171.11,-71.55L170.81,-71.14L170.52,-70.72L170.25,-70.28L169.97,-69.84L169.71,-69.38L169.46,-68.90L169.21,-68.42L168.98,-67.92L168.75,-67.41L168.53,-66.88L168.31,-66.35L168.11,-65.80L167.91,-65.23L167.73,-64.66L167.55,-64.07L167.38,-63.46L167.22,-62.84L167.07,-62.21L166.92,-61.57L166.79,-60.91L166.66,-60.24Z" fill="#F1F6F1" fill-rule="evenodd"/><path d="M387.79,-100.00L387.79,-100.00L387.79,-100.00L387.79,-100.00L387.79,-100.01L387.79,-100.01L387.79,-100.01L387.79,-100.01L387.79,-100.01L387.80,-100.01L387.80,-100.01L387.80,-100.01L387.80,-100.01L387.80,-100.01L387.80,-100.01L423.40,-100.01L423.40,-100.01L423.40,-100.01L423.40,-100.01L423.40,-100.01L423.40,-100.01L423.41,-100.01L423.41,-100.01L423.41,-100.01L423.41,-100.01L423.41,-100.01L423.41,-100.00L423.41,-100.00L423.41,-100.00L423.41,-100.00L423.41,-100.00L423.41,-100.00L423.41,-100.00L423.41,-100.00L423.41,-100.00L393.21,0.00L393.21,0.00L393.21,0.00L393.21,0.01L393.21,0.01L393.21,0.01L393.21,0.01L393.21,0.01L393.20,0.01L393.20,0.01L393.20,0.01L393.20,0.01L393.20,0.01L393.20,0.01L352.40,0.01L352.40,0.01L352.40,0.01L352.40,0.01L352.40,0.01L352.40,0.01L352.39,0.01L352.39,0.01L352.39,0.01L352.39,0.01L352.39,0.01L352.39,0.00L352.39,0.00L352.39,0.00L334.20,-61.36L316.61,0.00L316.61,0.00L316.61,0.00L316.61,0.01L316.61,0.01L316.61,0.01L316.61,0.01L316.61,0.01L316.60,0.01L316.60,0.01L316.60,0.01L316.60,0.01L316.60,0.01L316.60,0.01L276.00,0.01L276.00,0.01L276.00,0.01L276.00,0.01L276.00,0.01L276.00,0.01L275.99,0.01L275.99,0.01L275.99,0.01L275.99,0.01L275.99,0.01L275.99,0.00L275.99,0.00L275.99,0.00L245.59,-100.00L245.59,-100.00L245.59,-100.00L245.59,-100.00L245.59,-100.00L245.59,-100.00L245.59,-100.00L245.59,-100.00L245.59,-100.00L245.59,-100.01L245.59,-100.01L245.59,-100.01L245.59,-100.01L245.59,-100.01L245.60,-100.01L245.60,-100.01L245.60,-100.01L245.60,-100.01L245.60,-100.01L245.60,-100.01L281.40,-100.01L281.40,-100.01L281.40,-100.01L281.40,-100.01L281.40,-100.01L281.40,-100.01L281.41,-100.01L281.41,-100.01L281.41,-100.01L281.41,-100.01L281.41,-100.01L281.41,-100.00L281.41,-100.00L281.41,-100.00L281.41,-100.00L298.20,-26.24L317.79,-100.00L317.79,-100.00L317.79,-100.00L317.79,-100.01L317.79,-100.01L317.79,-100.01L317.79,-100.01L317.79,-100.01L317.80,-100.01L317.80,-100.01L317.80,-100.01L317.80,-100.01L317.80,-100.01L317.80,-100.01L351.40,-100.01L351.40,-100.01L351.40,-100.01L351.40,-100.01L351.40,-100.01L351.40,-100.01L351.41,-100.01L351.41,-100.01L351.41,-100.01L351.41,-100.01L351.41,-100.01L351.41,-100.00L351.41,-100.00L351.41,-100.00L370.80,-26.24Z" fill="#F1F6F1" fill-rule="evenodd"/><path d="M439.20,0.01L439.20,0.01L439.20,0.01L439.20,0.01L439.20,0.01L439.20,0.01L439.19,0.01L439.19,0.01L439.19,0.01L439.19,0.01L439.19,0.01L439.19,0.00L439.19,0.00L439.19,0.00L439.19,0.00L439.19,0.00L439.19,0.00L439.19,-100.00L439.19,-100.00L439.19,-100.00L439.19,-100.00L439.19,-100.00L439.19,-100.00L439.19,-100.01L439.19,-100.01L439.19,-100.01L439.19,-100.01L439.19,-100.01L439.20,-100.01L439.20,-100.01L439.20,-100.01L439.20,-100.01L439.20,-100.01L439.20,-100.01L469.60,-100.01L469.60,-100.01L469.60,-100.01L469.60,-100.01L469.60,-100.01L469.60,-100.01L469.61,-100.01L469.61,-100.01L469.61,-100.01L469.61,-100.01L469.61,-100.01L469.61,-100.00L469.61,-100.00L469.61,-100.00L469.61,-100.00L469.61,-100.00L470.61,-80.64L471.02,-81.52L471.02,-81.52L471.46,-82.41L471.46,-82.41L471.91,-83.28L471.91,-83.28L472.38,-84.13L472.38,-84.13L472.86,-84.97L472.86,-84.97L473.36,-85.78L473.36,-85.78L473.87,-86.58L473.87,-86.58L474.40,-87.35L474.40,-87.35L474.95,-88.11L474.95,-88.11L475.50,-88.84L475.50,-88.84L476.08,-89.56L476.08,-89.56L476.66,-90.25L476.66,-90.25L477.26,-90.93L477.26,-90.93L477.88,-91.58L477.88,-91.58L478.51,-92.22L478.51,-92.22L479.16,-92.84L479.16,-92.84L479.82,-93.44L479.82,-93.44L480.50,-94.01L480.50,-94.01L481.19,-94.57L481.19,-94.57L481.89,-95.11L481.89,-95.11L482.61,-95.63L482.61,-95.63L483.35,-96.13L483.35,-96.13L484.09,-96.61L484.09,-96.61L484.86,-97.07L484.86,-97.07L485.63,-97.51L485.63,-97.51L486.41,-97.93L486.41,-97.93L487.20,-98.32L487.20,-98.32L488.01,-98.70L488.01,-98.70L488.82,-99.06L488.82,-99.06L489.64,-99.40L489.64,-99.40L490.48,-99.71L490.48,-99.71L491.32,-100.01L491.32,-100.01L492.17,-100.28L492.17,-100.28L493.04,-100.54L493.04,-100.54L493.91,-100.77L493.91,-100.77L494.79,-100.99L494.80,-100.99L495.69,-101.18L495.69,-101.18L496.59,-101.36L496.59,-101.36L497.51,-101.51L497.51,-101.51L498.43,-101.64L498.43,-101.64L499.37,-101.75L499.37,-101.75L500.32,-101.85L500.32,-101.85L501.27,-101.92L501.27,-101.92L502.24,-101.97L502.24,-101.97L503.21,-102.00L503.21,-102.00L504.20,-102.01L504.20,-102.01L505.17,-102.00L505.17,-102.00L506.13,-101.97L506.13,-101.97L507.07,-101.92L507.07,-101.92L508.01,-101.86L508.01,-101.86L508.93,-101.77L508.93,-101.77L509.84,-101.67L509.84,-101.67L510.74,-101.55L510.74,-101.55L511.63,-101.40L511.63,-101.40L512.51,-101.24L512.51,-101.24L513.37,-101.06L513.37,-101.06L514.23,-100.87L514.23,-100.87L515.07,-100.65L515.07,-100.65L515.91,-100.41L515.91,-100.41L516.73,-100.16L516.73,-100.16L517.54,-99.88L517.54,-99.88L518.33,-99.59L518.33,-99.59L519.12,-99.28L519.12,-99.28L519.90,-98.95L519.90,-98.95L520.66,-98.60L520.66,-98.60L521.41,-98.23L521.41,-98.23L522.16,-97.84L522.16,-97.84L522.89,-97.43L522.89,-97.43L523.61,-97.01L523.61,-97.01L524.31,-96.56L524.31,-96.56L525.00,-96.10L525.00,-96.10L525.67,-95.62L525.67,-95.62L526.33,-95.12L526.33,-95.12L526.97,-94.61L526.97,-94.61L527.60,-94.07L527.60,-94.07L528.21,-93.52L528.21,-93.52L528.80,-92.95L528.80,-92.95L529.38,-92.36L529.38,-92.36L529.94,-91.75L529.94,-91.75L530.49,-91.13L530.49,-91.13L531.02,-90.48L531.02,-90.48L531.54,-89.82L531.54,-89.82L532.03,-89.14L532.03,-89.14L532.52,-88.44L532.52,-88.44L532.98,-87.73L532.98,-87.73L533.44,-86.99L533.44,-86.99L533.87,-86.24L533.87,-86.24L534.29,-85.47L534.29,-85.47L534.69,-84.68L534.69,-84.68L535.08,-83.87L535.08,-83.87L535.45,-83.05L535.45,-83.05L535.80,-82.22L536.07,-82.77L536.07,-82.77L536.36,-83.34L536.36,-83.34L536.66,-83.89L536.66,-83.89L536.96,-84.43L536.96,-84.43L537.27,-84.97L537.27,-84.97L537.59,-85.50L537.59,-85.50L537.92,-86.02L537.92,-86.02L538.25,-86.53L538.25,-86.53L538.59,-87.03L538.59,-87.03L538.93,-87.53L538.93,-87.53L539.29,-88.02L539.29,-88.02L539.65,-88.49L539.65,-88.49L540.02,-88.96L540.02,-88.96L540.39,-89.43L540.39,-89.43L540.77,-89.88L540.77,-89.88L541.16,-90.32L541.16,-90.32L541.56,-90.76L541.56,-90.76L541.97,-91.19L541.97,-91.19L542.38,-91.61L542.38,-91.61L542.79,-92.02L542.80,-92.02L543.22,-92.43L543.22,-92.43L543.65,-92.82L543.65,-92.82L544.09,-93.21L544.09,-93.21L544.54,-93.59L544.54,-93.59L544.99,-93.96L544.99,-93.96L545.45,-94.32L545.45,-94.32L545.91,-94.67L545.91,-94.67L546.38,-95.02L546.38,-95.02L546.86,-95.35L546.86,-95.35L547.34,-95.68L547.34,-95.68L547.82,-96.00L547.82,-96.00L548.32,-96.32L548.32,-96.32L548.81,-96.62L548.81,-96.62L549.32,-96.91L549.32,-96.91L549.83,-97.20L549.83,-97.20L550.34,-97.48L550.34,-97.48L550.86,-97.75L550.86,-97.75L551.39,-98.01L551.39,-98.01L551.92,-98.27L551.92,-98.27L552.45,-98.51L552.45,-98.51L553.00,-98.75L553.00,-98.75L553.55,-98.98L553.55,-98.98L554.10,-99.20L554.10,-99.20L554.66,-99.41L554.66,-99.41L555.23,-99.61L555.23,-99.61L555.80,-99.81L555.80,-99.81L556.37,-100.00L556.37,-100.00L556.95,-100.18L556.95,-100.18L557.53,-100.35L557.53,-100.35L558.11,-100.51L558.11,-100.51L558.69,-100.66L558.69,-100.66L559.27,-100.81L559.27,-100.81L559.85,-100.95L559.85,-100.95L560.44,-101.07L560.44,-101.07L561.02,-101.19L561.02,-101.19L561.61,-101.31L561.61,-101.31L562.20,-101.41L562.20,-101.41L562.79,-101.51L562.79,-101.51L563.39,-101.59L563.39,-101.59L563.98,-101.67L563.98,-101.67L564.58,-101.74L564.58,-101.74L565.18,-101.81L565.18,-101.81L565.77,-101.86L565.77,-101.86L566.37,-101.91L566.37,-101.91L566.98,-101.94L566.98,-101.94L567.58,-101.97L567.58,-101.97L568.19,-101.99L568.19,-101.99L568.79,-102.01L568.79,-102.01L569.40,-102.01L569.40,-102.01L570.27,-102.00L570.27,-102.00L571.12,-101.98L571.12,-101.98L571.97,-101.94L571.97,-101.94L572.81,-101.89L572.81,-101.89L573.64,-101.83L573.64,-101.83L574.46,-101.74L574.46,-101.74L575.27,-101.65L575.27,-101.65L576.07,-101.54L576.07,-101.54L576.86,-101.41L576.86,-101.41L577.64,-101.27L577.64,-101.27L578.42,-101.12L578.42,-101.12L579.18,-100.95L579.18,-100.95L579.94,-100.76L579.94,-100.76L580.69,-100.56L580.69,-100.56L581.43,-100.35L581.43,-100.35L582.15,-100.12L582.15,-100.12L582.87,-99.88L582.87,-99.88L583.59,-99.62L583.59,-99.62L584.29,-99.35L584.29,-99.35L584.98,-99.06L584.98,-99.06L585.66,-98.76L585.66,-98.76L586.34,-98.44L586.34,-98.44L587.00,-98.11L587.00,-98.11L587.66,-97.76L587.66,-97.76L588.30,-97.40L588.30,-97.40L588.93,-97.02L588.94,-97.02L589.56,-96.63L589.56,-96.63L590.16,-96.22L590.16,-96.22L590.76,-95.80L590.76,-95.80L591.34,-95.36L591.35,-95.36L591.92,-94.91L591.92,-94.91L592.48,-94.44L592.48,-94.44L593.03,-93.96L593.03,-93.96L593.57,-93.46L593.57,-93.46L594.09,-92.95L594.09,-92.95L594.61,-92.42L594.61,-92.42L595.11,-91.88L595.11,-91.88L595.60,-91.32L595.60,-91.32L596.08,-90.74L596.08,-90.74L596.55,-90.16L596.55,-90.16L597.00,-89.55L597.01,-89.55L597.45,-88.93L597.45,-88.93L597.88,-88.30L597.88,-88.30L598.30,-87.65L598.30,-87.65L598.71,-86.98L598.71,-86.98L599.11,-86.31L599.11,-86.30L599.49,-85.61L599.49,-85.61L599.86,-84.90L599.86,-84.90L600.21,-84.18L600.21,-84.18L600.54,-83.44L600.54,-83.44L600.85,-82.68L600.85,-82.68L601.15,-81.92L601.15,-81.92L601.43,-81.13L601.43,-81.13L601.70,-80.34L601.70,-80.34L601.94,-79.52L601.94,-79.52L602.17,-78.70L602.17,-78.70L602.38,-77.85L602.38,-77.85L602.58,-77.00L602.58,-77.00L602.76,-76.13L602.76,-76.13L602.92,-75.24L602.92,-75.24L603.07,-74.34L603.07,-74.34L603.19,-73.42L603.19,-73.42L603.30,-72.49L603.30,-72.49L603.40,-71.55L603.40,-71.55L603.47,-70.59L603.47,-70.59L603.53,-69.61L603.53,-69.61L603.58,-68.62L603.58,-68.62L603.60,-67.62L603.60,-67.62L603.61,-66.60L603.61,-66.60L603.61,0.00L603.61,0.00L603.61,0.00L603.61,0.00L603.61,0.00L603.61,0.00L603.61,0.01L603.61,0.01L603.61,0.01L603.61,0.01L603.61,0.01L603.60,0.01L603.60,0.01L603.60,0.01L603.60,0.01L603.60,0.01L603.60,0.01L569.60,0.01L569.60,0.01L569.60,0.01L569.60,0.01L569.60,0.01L569.60,0.01L569.59,0.01L569.59,0.01L569.59,0.01L569.59,0.01L569.59,0.01L569.59,0.00L569.59,0.00L569.59,0.00L569.59,0.00L569.59,0.00L569.59,0.00L569.59,-58.80L569.58,-59.62L569.56,-60.43L569.53,-61.21L569.48,-61.96L569.42,-62.70L569.34,-63.41L569.25,-64.10L569.14,-64.77L569.02,-65.42L568.89,-66.05L568.74,-66.65L568.58,-67.24L568.41,-67.80L568.22,-68.33L568.02,-68.85L567.80,-69.35L567.57,-69.82L567.33,-70.27L567.07,-70.70L566.79,-71.10L566.51,-71.49L566.21,-71.85L565.89,-72.19L565.57,-72.52L565.23,-72.82L564.89,-73.12L564.53,-73.40L564.17,-73.66L563.79,-73.92L563.41,-74.15L563.02,-74.37L562.62,-74.58L562.21,-74.78L561.79,-74.96L561.36,-75.12L560.92,-75.27L560.47,-75.41L560.01,-75.53L559.54,-75.64L559.06,-75.73L558.58,-75.81L558.08,-75.88L557.57,-75.93L557.06,-75.96L556.53,-75.98L556.00,-75.99L555.57,-75.99L555.14,-75.97L554.71,-75.95L554.29,-75.91L553.87,-75.87L553.45,-75.82L553.04,-75.76L552.63,-75.69L552.23,-75.61L551.82,-75.52L551.43,-75.42L551.03,-75.31L550.64,-75.19L550.25,-75.06L549.86,-74.93L549.48,-74.78L549.10,-74.63L548.73,-74.46L548.36,-74.28L547.99,-74.10L547.62,-73.91L547.26,-73.70L546.91,-73.49L546.55,-73.27L546.21,-73.04L545.87,-72.80L545.54,-72.55L545.21,-72.29L544.90,-72.02L544.59,-71.74L544.28,-71.45L543.99,-71.15L543.70,-70.85L543.42,-70.53L543.15,-70.20L542.88,-69.87L542.62,-69.52L542.37,-69.17L542.12,-68.81L541.89,-68.43L541.65,-68.05L541.43,-67.66L541.22,-67.26L541.01,-66.85L540.80,-66.43L540.61,-66.00L540.42,-65.56L540.24,-65.11L540.07,-64.65L539.91,-64.18L539.76,-63.70L539.61,-63.21L539.47,-62.71L539.35,-62.20L539.22,-61.69L539.11,-61.16L539.01,-60.62L538.91,-60.07L538.83,-59.52L538.75,-58.95L538.68,-58.37L538.61,-57.78L538.56,-57.19L538.51,-56.58L538.48,-55.96L538.45,-55.34L538.43,-54.70L538.41,-54.06L538.41,-53.40L538.41,0.00L538.41,0.00L538.41,0.00L538.41,0.00L538.41,0.00L538.41,0.00L538.41,0.01L538.41,0.01L538.41,0.01L538.41,0.01L538.41,0.01L538.40,0.01L538.40,0.01L538.40,0.01L538.40,0.01L538.40,0.01L538.40,0.01L504.40,0.01L504.40,0.01L504.40,0.01L504.40,0.01L504.40,0.01L504.40,0.01L504.39,0.01L504.39,0.01L504.39,0.01L504.39,0.01L504.39,0.01L504.39,0.00L504.39,0.00L504.39,0.00L504.39,0.00L504.39,0.00L504.39,0.00L504.39,-58.80L504.38,-59.62L504.36,-60.43L504.33,-61.21L504.28,-61.96L504.21,-62.70L504.13,-63.41L504.04,-64.10L503.93,-64.77L503.81,-65.42L503.67,-66.05L503.52,-66.65L503.36,-67.24L503.18,-67.80L502.98,-68.33L502.77,-68.85L502.55,-69.35L502.32,-69.82L502.06,-70.27L501.80,-70.70L501.52,-71.10L501.22,-71.49L500.92,-71.85L500.59,-72.19L500.26,-72.52L499.92,-72.82L499.56,-73.12L499.21,-73.40L498.84,-73.66L498.46,-73.92L498.08,-74.15L497.69,-74.37L497.28,-74.58L496.88,-74.78L496.46,-74.96L496.03,-75.12L495.60,-75.27L495.16,-75.41L494.71,-75.53L494.25,-75.64L493.78,-75.73L493.30,-75.81L492.82,-75.88L492.33,-75.93L491.83,-75.96L491.32,-75.98L490.80,-75.99L490.40,-75.99L490.00,-75.97L489.61,-75.95L489.22,-75.92L488.82,-75.88L488.44,-75.83L488.05,-75.77L487.66,-75.70L487.28,-75.62L486.90,-75.54L486.52,-75.44L486.14,-75.34L485.76,-75.22L485.39,-75.10L485.02,-74.97L484.65,-74.83L484.28,-74.68L483.91,-74.52L483.55,-74.35L483.18,-74.18L482.82,-73.99L482.46,-73.80L482.11,-73.59L481.75,-73.38L481.41,-73.15L481.07,-72.92L480.73,-72.68L480.40,-72.42L480.08,-72.16L479.77,-71.88L479.46,-71.60L479.16,-71.30L478.86,-71.00L478.57,-70.68L478.29,-70.35L478.02,-70.02L477.75,-69.67L477.48,-69.32L477.23,-68.95L476.98,-68.57L476.73,-68.18L476.49,-67.79L476.26,-67.38L476.04,-66.96L475.82,-66.53L475.61,-66.10L475.40,-65.65L475.21,-65.19L475.02,-64.71L474.85,-64.23L474.68,-63.73L474.52,-63.23L474.37,-62.71L474.23,-62.17L474.10,-61.63L473.98,-61.08L473.86,-60.51L473.76,-59.93L473.66,-59.34L473.58,-58.74L473.50,-58.13L473.43,-57.50L473.37,-56.87L473.32,-56.22L473.28,-55.56L473.25,-54.89L473.23,-54.20L473.21,-53.51L473.21,-52.80L473.21,0.00L473.21,0.00L473.21,0.00L473.21,0.00L473.21,0.00L473.21,0.00L473.21,0.01L473.21,0.01L473.21,0.01L473.21,0.01L473.21,0.01L473.20,0.01L473.20,0.01L473.20,0.01L473.20,0.01L473.20,0.01L473.20,0.01Z" fill="#F1F6F1" fill-rule="evenodd"/><path d="M723.80,0.01L723.80,0.01L723.80,0.01L723.80,0.01L723.80,0.01L723.79,0.01L723.79,0.01L723.79,0.01L723.79,0.00L723.79,0.00L723.79,0.00L723.79,0.00L723.79,0.00L714.79,-22.08L714.79,-22.08L714.79,-22.08L714.79,-22.08L714.79,-22.08L714.79,-22.08L714.79,-22.09L714.80,-22.09L714.80,-22.09L714.80,-22.09L714.80,-22.09L714.80,-22.09L714.80,-22.09L714.80,-22.09L714.80,-22.09L714.80,-22.09L714.80,-22.09L714.80,-22.10L707.37,-40.31L708.19,-40.31L692.00,-80.73L675.81,-40.31L676.78,-40.31L669.20,-22.10L669.20,-22.09L669.20,-22.09L669.20,-22.09L669.20,-22.09L669.20,-22.09L669.20,-22.09L669.20,-22.09L669.20,-22.09L669.20,-22.09L669.20,-22.09L669.20,-22.09L669.20,-22.08L669.20,-22.08L669.20,-22.08L669.20,-22.08L669.21,-22.08L660.01,0.00L660.01,0.00L660.01,0.00L660.01,0.00L660.01,0.00L660.01,0.01L660.01,0.01L660.01,0.01L660.00,0.01L660.00,0.01L660.00,0.01L660.00,0.01L660.00,0.01L660.00,0.01L625.40,0.01L625.40,0.01L625.40,0.01L625.40,0.01L625.40,0.01L625.40,0.01L625.39,0.01L625.39,0.01L625.39,0.01L625.39,0.00L625.39,0.00L625.39,0.00L625.39,0.00L625.39,0.00L625.39,0.00L625.39,0.00L625.39,-0.00L625.39,-0.00L625.39,-0.00L625.39,-0.00L671.79,-100.00L671.79,-100.00L671.79,-100.00L671.79,-100.00L671.79,-100.00L671.79,-100.01L671.79,-100.01L671.79,-100.01L671.80,-100.01L671.80,-100.01L671.80,-100.01L671.80,-100.01L671.80,-100.01L671.80,-100.01L713.00,-100.01L713.00,-100.01L713.00,-100.01L713.00,-100.01L713.00,-100.01L713.00,-100.01L713.01,-100.01L713.01,-100.01L713.01,-100.01L713.01,-100.00L713.01,-100.00L713.01,-100.00L713.01,-100.00L713.01,-100.00L759.21,-0.00L759.21,-0.00L759.21,-0.00L759.21,-0.00L759.21,0.00L759.21,0.00L759.21,0.00L759.21,0.00L759.21,0.00L759.21,0.00L759.21,0.00L759.21,0.01L759.21,0.01L759.21,0.01L759.20,0.01L759.20,0.01L759.20,0.01L759.20,0.01L759.20,0.01L759.20,0.01L723.80,0.01Z" fill="#F1F6F1" fill-rule="evenodd"/><path d="M686.30,-10.00L685.97,-10.01L685.65,-10.02L685.32,-10.05L685.00,-10.09L684.67,-10.13L684.35,-10.19L684.03,-10.26L683.71,-10.34L683.40,-10.43L683.09,-10.53L682.78,-10.64L682.47,-10.76L682.17,-10.89L681.88,-11.03L681.59,-11.18L681.30,-11.34L681.02,-11.51L680.75,-11.69L680.48,-11.87L680.21,-12.07L679.96,-12.27L679.71,-12.48L679.47,-12.70L679.23,-12.93L679.00,-13.16L678.78,-13.41L678.57,-13.66L678.37,-13.91L678.17,-14.18L677.99,-14.44L677.81,-14.72L677.64,-15.00L677.48,-15.29L677.33,-15.58L677.19,-15.87L677.06,-16.17L676.94,-16.48L676.83,-16.79L676.73,-17.10L676.64,-17.41L676.56,-17.73L676.49,-18.05L676.44,-18.37L676.39,-18.69L676.35,-19.02L676.32,-19.35L676.31,-19.67L676.30,-20.00L676.31,-20.33L676.32,-20.65L676.35,-20.98L676.39,-21.31L676.44,-21.63L676.49,-21.95L676.56,-22.27L676.64,-22.59L676.73,-22.90L676.83,-23.21L676.94,-23.52L677.06,-23.83L677.19,-24.13L677.33,-24.42L677.48,-24.71L677.64,-25.00L677.81,-25.28L677.99,-25.56L678.17,-25.82L678.37,-26.09L678.57,-26.34L678.78,-26.59L679.00,-26.84L679.23,-27.07L679.47,-27.30L679.71,-27.52L679.96,-27.73L680.21,-27.93L680.48,-28.13L680.75,-28.31L681.02,-28.49L681.30,-28.66L681.59,-28.82L681.88,-28.97L682.17,-29.11L682.47,-29.24L682.78,-29.36L683.09,-29.47L683.40,-29.57L683.71,-29.66L684.03,-29.74L684.35,-29.81L684.67,-29.87L685.00,-29.91L685.32,-29.95L685.65,-29.98L685.97,-29.99L686.30,-30.00L689.63,-30.00L689.63,-10.00Z" fill="url(#gL)"/><path d="M698.09,-29.99L698.42,-29.98L698.74,-29.95L699.07,-29.91L699.39,-29.87L699.71,-29.81L700.03,-29.74L700.35,-29.66L700.67,-29.57L700.98,-29.47L701.29,-29.36L701.59,-29.24L701.89,-29.11L702.19,-28.97L702.48,-28.82L702.76,-28.66L703.04,-28.49L703.32,-28.31L703.59,-28.13L703.85,-27.93L704.11,-27.73L704.36,-27.52L704.60,-27.30L704.84,-27.07L705.06,-26.84L705.28,-26.59L705.49,-26.34L705.70,-26.09L705.89,-25.82L706.08,-25.56L706.26,-25.28L706.42,-25.00L706.58,-24.71L706.73,-24.42L706.87,-24.13L707.00,-23.83L707.12,-23.52L707.23,-23.21L707.33,-22.90L707.42,-22.59L707.50,-22.27L707.57,-21.95L707.63,-21.63L707.68,-21.31L707.72,-20.98L707.74,-20.65L707.76,-20.33L707.76,-20.00L707.76,-19.67L707.74,-19.35L707.72,-19.02L707.68,-18.69L707.63,-18.37L707.57,-18.05L707.50,-17.73L707.42,-17.41L707.33,-17.10L707.23,-16.79L707.12,-16.48L707.00,-16.17L706.87,-15.87L706.73,-15.58L706.58,-15.29L706.42,-15.00L706.26,-14.72L706.08,-14.44L705.89,-14.18L705.70,-13.91L705.49,-13.66L705.28,-13.41L705.06,-13.16L704.84,-12.93L704.60,-12.70L704.36,-12.48L704.11,-12.27L703.85,-12.07L703.59,-11.87L703.32,-11.69L703.04,-11.51L702.76,-11.34L702.48,-11.18L702.19,-11.03L701.89,-10.89L701.59,-10.76L701.29,-10.64L700.98,-10.53L700.67,-10.43L700.35,-10.34L700.03,-10.26L699.71,-10.19L699.39,-10.13L699.07,-10.09L698.74,-10.05L698.42,-10.02L698.09,-10.01L697.76,-10.00L694.43,-10.00L694.43,-30.00L697.76,-30.00Z" fill="url(#gR)"/></g><path d="M91.836 260.0V240.83H97.722Q100.935 240.83 102.6495 242.1395Q104.364 243.449 104.364 245.96Q104.364 247.148 103.86449999999999 248.066Q103.365 248.984 102.3255 249.551Q101.286 250.118 99.666 250.226V250.037Q101.556 250.091 102.78450000000001 250.69850000000002Q104.013 251.306 104.5935 252.34550000000002Q105.174 253.385 105.174 254.762Q105.174 257.354 103.4055 258.677Q101.637 260.0 98.316 260.0ZM95.697 256.598 98.343 256.571Q99.774 256.571 100.503 255.97700000000003Q101.232 255.383 101.232 254.33Q101.232 253.196 100.48949999999999 252.5615Q99.747 251.927 98.343 251.927H95.697ZM95.697 248.633H97.722Q99.072 248.633 99.747 248.0525Q100.422 247.472 100.422 246.419Q100.422 245.36599999999999 99.747 244.79899999999998Q99.072 244.232 97.722 244.232H95.697ZM130.9839520810061 260.0V252.008L125.61095208100609 240.83H129.7689520810061L132.9009520810061 248.039L136.0329520810061 240.83H140.1909520810061L134.84495208100608 252.008V260.0ZM196.9408562430183 260.0V240.83H200.7748562430183V258.893L197.96685624301827 256.544H209.14485624301827V260.0ZM231.20180832402434 260.0V256.544H235.38680832402434V244.286H231.20180832402434V240.83H243.40580832402435V244.286H239.22080832402435V256.544H243.40580832402435V260.0ZM270.13376040503044 260.0 264.54476040503044 240.83H268.62176040503044L272.7257604050304 256.166H271.4837604050304L275.58776040503045 240.83H279.66476040503045L274.07576040503045 260.0ZM301.3437124860365 260.0V240.83H313.5477124860365V244.286H302.7477124860365L305.1777124860365 241.937V250.712L302.7477124860365 248.93H313.0617124860365V252.305H302.7477124860365L305.1777124860365 250.55V260.0ZM341.7066645670426 260.432Q338.54766456704255 260.432 336.8061645670426 258.6095Q335.0646645670426 256.787 335.0646645670426 253.358V240.803H338.89866456704254V253.682Q338.89866456704254 255.302 339.62766456704253 256.166Q340.35666456704257 257.03 341.7066645670426 257.03Q343.05666456704256 257.03 343.78566456704255 256.166Q344.5146645670426 255.302 344.5146645670426 253.682V240.803H348.3486645670426V253.358Q348.3486645670426 256.787 346.60716456704256 258.6095Q344.8656645670426 260.432 341.7066645670426 260.432ZM370.94561664804866 260.0V240.83H374.77961664804866V258.893L371.97161664804867 256.544H383.14961664804866V260.0ZM444.1925208100608 260.0V244.286H439.0895208100608V240.83H453.1295208100608V244.286H448.0265208100608V260.0ZM474.10647289106686 260.0V240.83H477.94047289106686V249.929L476.5094728910669 248.633H485.31147289106684L483.88047289106686 249.929V240.83H487.71447289106686V260.0H483.88047289106686V250.793L485.31147289106684 252.089H476.5094728910669L477.94047289106686 250.793V260.0ZM509.8794249720729 260.0V240.83H521.867424972073V244.286H513.713424972073V248.687H521.5434249720729V252.089H513.713424972073V256.544H522.083424972073V260.0ZM544.086377053079 260.0V240.83H550.269377053079Q553.374377053079 240.83 555.115877053079 242.3825Q556.8573770530791 243.935 556.8573770530791 246.581Q556.8573770530791 248.012 556.263377053079 249.065Q555.669377053079 250.118 554.643377053079 250.712Q553.617377053079 251.306 552.402377053079 251.414L552.294377053079 251.063Q554.427377053079 251.09 555.480377053079 251.9405Q556.533377053079 252.791 556.695377053079 254.654L557.154377053079 260.0H553.266377053079L552.942377053079 255.68Q552.861377053079 254.6 552.5643770530789 254.03300000000002Q552.267377053079 253.466 551.646377053079 253.25Q551.025377053079 253.034 549.999377053079 253.034H547.920377053079V260.0ZM547.920377053079 249.578H550.134377053079Q551.484377053079 249.578 552.199877053079 248.876Q552.915377053079 248.174 552.915377053079 246.932Q552.915377053079 245.663 552.199877053079 244.9745Q551.484377053079 244.286 550.134377053079 244.286H547.920377053079ZM577.7263291340852 260.0 582.9643291340851 240.83H587.6623291340851L592.9003291340852 260.0H589.0393291340852L585.3133291340852 245.474L581.5873291340852 260.0ZM581.2633291340851 255.923 582.2353291340852 252.575H588.3913291340851L589.3633291340851 255.923ZM614.1202812150912 260.0V240.83H620.3032812150911Q622.3012812150912 240.83 623.8132812150911 241.5995Q625.3252812150912 242.369 626.1757812150911 243.7595Q627.0262812150911 245.15 627.0262812150911 246.986Q627.0262812150911 248.849 626.1757812150911 250.226Q625.3252812150912 251.603 623.8132812150911 252.3725Q622.3012812150912 253.142 620.3032812150911 253.142H617.9542812150912V260.0ZM617.9542812150912 249.659H619.8982812150912Q621.5182812150912 249.659 622.3012812150912 248.98399999999998Q623.0842812150912 248.309 623.0842812150912 246.986Q623.0842812150912 245.663 622.3012812150912 244.9745Q621.5182812150912 244.286 619.8982812150912 244.286H617.9542812150912ZM649.0832332960973 260.0V240.83H661.0712332960973V244.286H652.9172332960973V248.687H660.7472332960973V252.089H652.9172332960973V256.544H661.2872332960973V260.0ZM689.7161853771034 260.432Q686.5571853771035 260.432 684.8156853771034 258.6095Q683.0741853771034 256.787 683.0741853771034 253.358V240.803H686.9081853771035V253.682Q686.9081853771035 255.302 687.6371853771034 256.166Q688.3661853771034 257.03 689.7161853771034 257.03Q691.0661853771035 257.03 691.7951853771035 256.166Q692.5241853771034 255.302 692.5241853771034 253.682V240.803H696.3581853771034V253.358Q696.3581853771034 256.787 694.6166853771034 258.6095Q692.8751853771034 260.432 689.7161853771034 260.432ZM722.6001374581095 260.0V244.286H717.4971374581096V240.83H731.5371374581096V244.286H726.4341374581096V260.0ZM753.2160895391157 260.0V256.544H757.4010895391157V244.286H753.2160895391157V240.83H765.4200895391157V244.286H761.2350895391157V256.544H765.4200895391157V260.0ZM794.2270416201218 260.432Q791.9050416201218 260.432 790.2580416201217 259.2305Q788.6110416201218 258.029 787.7470416201218 255.788Q786.8830416201218 253.547 786.8830416201218 250.442Q786.8830416201218 247.337 787.7470416201218 245.08249999999998Q788.6110416201218 242.828 790.2580416201217 241.613Q791.9050416201218 240.398 794.2270416201218 240.398Q797.0350416201218 240.398 798.8440416201217 242.2475Q800.6530416201218 244.097 801.1660416201219 247.499L797.2240416201219 247.688Q796.9270416201218 245.798 796.1440416201218 244.799Q795.3610416201218 243.8 794.2270416201218 243.8Q793.1470416201219 243.8 792.3910416201218 244.5695Q791.6350416201218 245.339 791.2300416201218 246.824Q790.8250416201219 248.309 790.8250416201219 250.442Q790.8250416201219 252.548 791.2300416201218 254.0195Q791.6350416201218 255.49099999999999 792.3910416201218 256.2605Q793.1470416201219 257.03 794.2270416201218 257.03Q795.3880416201218 257.03 796.2115416201218 255.96349999999998Q797.0350416201218 254.897 797.3050416201218 252.872L801.2200416201218 253.061Q800.7610416201218 256.571 798.9385416201218 258.5015Q797.1160416201218 260.432 794.2270416201218 260.432ZM829.0819937011279 260.432Q826.894993701128 260.432 825.355993701128 259.595Q823.8169937011279 258.758 822.966493701128 257.219Q822.115993701128 255.68 821.953993701128 253.52L825.814993701128 253.331Q825.976993701128 254.546 826.4359937011279 255.383Q826.894993701128 256.22 827.596993701128 256.625Q828.298993701128 257.03 829.270993701128 257.03Q830.134993701128 257.03 830.742493701128 256.787Q831.3499937011279 256.544 831.673993701128 256.0715Q831.9979937011279 255.599 831.9979937011279 254.924Q831.9979937011279 254.195 831.6469937011279 253.628Q831.2959937011279 253.061 830.418493701128 252.602Q829.540993701128 252.143 827.947993701128 251.738Q826.030993701128 251.252 824.775493701128 250.577Q823.519993701128 249.902 822.9259937011279 248.849Q822.3319937011279 247.796 822.3319937011279 246.203Q822.3319937011279 244.448 823.101493701128 243.13850000000002Q823.870993701128 241.829 825.342493701128 241.1135Q826.813993701128 240.398 828.919993701128 240.398Q830.971993701128 240.398 832.429993701128 241.154Q833.8879937011279 241.91 834.7114937011279 243.341Q835.534993701128 244.772 835.669993701128 246.824L831.7819937011279 247.013Q831.6469937011279 246.014 831.268993701128 245.28500000000003Q830.890993701128 244.556 830.256493701128 244.178Q829.621993701128 243.8 828.7579937011279 243.8Q827.596993701128 243.8 826.908493701128 244.394Q826.2199937011279 244.988 826.2199937011279 246.014Q826.2199937011279 246.689 826.5574937011279 247.175Q826.894993701128 247.661 827.745493701128 248.039Q828.5959937011279 248.417 830.0809937011279 248.822Q832.2679937011279 249.335 833.5369937011279 250.17200000000003Q834.8059937011279 251.00900000000001 835.345993701128 252.143Q835.885993701128 253.277 835.885993701128 254.789Q835.885993701128 256.517 835.075993701128 257.77250000000004Q834.265993701128 259.028 832.7404937011279 259.73Q831.2149937011279 260.432 829.0819937011279 260.432Z" fill="#8FB3B0"/></svg></svg>